<svg xmlns="http://www.w3.org/2000/svg" xmlns:xlink="http://www.w3.org/1999/xlink" width="40" zoomAndPan="magnify" viewBox="0 0 30 30.000001" height="40" preserveAspectRatio="xMidYMid meet" version="1.0"><defs><clipPath id="74bf77b4a4"><path d="M 0.824219 13 L 13 13 L 13 27.675781 L 0.824219 27.675781 Z M 0.824219 13 " clip-rule="nonzero"/></clipPath><clipPath id="f92d10a5df"><path d="M 17 1.546875 L 29.132812 1.546875 L 29.132812 16 L 17 16 Z M 17 1.546875 " clip-rule="nonzero"/></clipPath></defs><g clip-path="url(#74bf77b4a4)"><path fill="#ffb050" d="M 12.097656 27.480469 L 12.097656 20.867188 L 5.648438 16.449219 L 0.824219 13.140625 L 0.824219 19.753906 Z M 12.097656 27.480469 " fill-opacity="1" fill-rule="nonzero"/></g><g clip-path="url(#f92d10a5df)"><path fill="#ffb050" d="M 17.894531 1.554688 L 17.894531 8.164062 L 24.34375 12.585938 L 29.167969 15.890625 L 29.167969 9.277344 Z M 17.894531 1.554688 " fill-opacity="1" fill-rule="nonzero"/></g><path fill="#ffffff" d="M 10.796875 18.613281 L 17.304688 9.121094 L 19.195312 10.417969 L 12.6875 19.910156 Z M 10.796875 18.613281 " fill-opacity="1" fill-rule="nonzero"/><path fill="#ffffff" d="M 12.097656 5.417969 L 12.097656 12.027344 L 6.6875 15.734375 L 1.863281 12.429688 Z M 12.097656 5.417969 " fill-opacity="1" fill-rule="nonzero"/><path fill="#ffffff" d="M 28.128906 16.601562 L 17.894531 23.617188 L 17.894531 17.003906 L 23.304688 13.296875 Z M 28.128906 16.601562 " fill-opacity="1" fill-rule="nonzero"/></svg>